<svg xmlns="http://www.w3.org/2000/svg" width="21" height="21" viewBox="0 0 21 21">
  <path id="Path_870" data-name="Path 870" d="M18.75,1.5A2.251,2.251,0,0,0,21-.75v-16.5a2.251,2.251,0,0,0-2.25-2.25H2.25A2.251,2.251,0,0,0,0-17.25V-.75A2.251,2.251,0,0,0,2.25,1.5ZM11.161-12.661a.287.287,0,0,1,.4,0l2.6,2.6a.286.286,0,0,1,0,.4L7.8-3.3,5.128-3A.568.568,0,0,1,4.5-3.623L4.8-6.3Zm5.011-.6a1.129,1.129,0,0,1,0,1.589l-1.083,1.083a.286.286,0,0,1-.4,0l-2.6-2.6a.286.286,0,0,1,0-.4l1.083-1.083a1.12,1.12,0,0,1,1.589,0Z" transform="translate(0 19.5)" fill="#c9c9c9"/>
</svg>
