<svg xmlns="http://www.w3.org/2000/svg" width="24.219" height="24.219" viewBox="0 0 24.219 24.219">
  <path id="Path_890" data-name="Path 890" d="M12.5-21.484A12.111,12.111,0,0,0,.391-9.375,12.109,12.109,0,0,0,12.5,2.734,12.109,12.109,0,0,0,24.609-9.375,12.111,12.111,0,0,0,12.5-21.484ZM12.5.391A9.76,9.76,0,0,1,2.734-9.375,9.762,9.762,0,0,1,12.5-19.141a9.762,9.762,0,0,1,9.766,9.766A9.76,9.76,0,0,1,12.5.391ZM17.736-12.07c0-2.466-2.558-4.336-4.954-4.336A5.489,5.489,0,0,0,7.872-13.76a.587.587,0,0,0,.129.8l1.359,1.03a.586.586,0,0,0,.814-.1c.735-.927,1.258-1.463,2.39-1.463.868,0,1.943.559,1.943,1.4,0,.637-.526.964-1.383,1.444-1,.561-2.323,1.258-2.323,3v.423a.586.586,0,0,0,.586.586h2.229a.586.586,0,0,0,.586-.586v-.309C14.2-8.746,17.736-8.8,17.736-12.07ZM14.551-3.906A2.053,2.053,0,0,0,12.5-5.957a2.053,2.053,0,0,0-2.051,2.051A2.053,2.053,0,0,0,12.5-1.855,2.053,2.053,0,0,0,14.551-3.906Z" transform="translate(-0.391 21.484)" fill="#777"/>
</svg>
