<svg xmlns="http://www.w3.org/2000/svg" width="31" height="31" viewBox="0 0 31 31">
  <path id="Path_878" data-name="Path 878" d="M1.937-3.875A6.586,6.586,0,0,0,3.875.429V2.906a.969.969,0,0,0,.969.969H6.781a.969.969,0,0,0,.969-.969V1.937h15.5v.969a.969.969,0,0,0,.969.969h1.937a.969.969,0,0,0,.969-.969V.429a6.586,6.586,0,0,0,1.937-4.3V-6.781H1.937Zm28.094-7.75H4.844V-22.932a1.288,1.288,0,0,1,1.287-1.284,1.479,1.479,0,0,1,.909.376l1.167,1.166a4.631,4.631,0,0,0,.522,4.827l-.01.01a1.113,1.113,0,0,0-.283.684,1.113,1.113,0,0,0,.283.684l.685.685a1.113,1.113,0,0,0,.685.284,1.113,1.113,0,0,0,.685-.284l6.38-6.38a1.113,1.113,0,0,0,.284-.685,1.113,1.113,0,0,0-.284-.685l-.685-.685a1.113,1.113,0,0,0-.685-.284,1.113,1.113,0,0,0-.685.284l-.01.01a4.631,4.631,0,0,0-4.827-.522L9.1-25.9A4.816,4.816,0,0,0,6.13-27.125a4.194,4.194,0,0,0-4.193,4.193h0v11.307H.969A.969.969,0,0,0,0-10.656v.969a.969.969,0,0,0,.969.969H30.031A.969.969,0,0,0,31-9.687v-.969A.969.969,0,0,0,30.031-11.625Z" transform="translate(0 27.125)" fill="#2e2b2b"/>
</svg>
