<svg xmlns="http://www.w3.org/2000/svg" width="38.75" height="23.25" viewBox="0 0 38.75 23.25">
  <path id="Path_879" data-name="Path 879" d="M10.656-11.625A4.849,4.849,0,0,0,15.5-16.469a4.849,4.849,0,0,0-4.844-4.844,4.849,4.849,0,0,0-4.844,4.844A4.849,4.849,0,0,0,10.656-11.625Zm21.312-7.75H18.406a.968.968,0,0,0-.969.969v8.719H3.875V-22.281a.968.968,0,0,0-.969-.969H.969A.968.968,0,0,0,0-22.281V-.969A.968.968,0,0,0,.969,0H2.906a.968.968,0,0,0,.969-.969V-3.875h31V-.969A.968.968,0,0,0,35.844,0h1.937a.968.968,0,0,0,.969-.969V-12.594A6.781,6.781,0,0,0,31.969-19.375Z" transform="translate(0 23.25)" fill="#fff"/>
</svg>
