<svg xmlns="http://www.w3.org/2000/svg" width="27.125" height="31" viewBox="0 0 27.125 31">
  <path id="Path_876" data-name="Path 876" d="M26.4-17.437a.729.729,0,0,0,.727-.727v-2.18a2.907,2.907,0,0,0-2.906-2.906H21.312V-26.4a.729.729,0,0,0-.727-.727H18.164a.729.729,0,0,0-.727.727v3.148H9.687V-26.4a.729.729,0,0,0-.727-.727H6.539a.729.729,0,0,0-.727.727v3.148H2.906A2.907,2.907,0,0,0,0-20.344v2.18a.729.729,0,0,0,.727.727ZM.727-15.5A.729.729,0,0,0,0-14.773V.969A2.907,2.907,0,0,0,2.906,3.875H24.219A2.907,2.907,0,0,0,27.125.969V-14.773A.729.729,0,0,0,26.4-15.5ZM13.345-8.864a.307.307,0,0,1,.436,0L16.614-6.03a.307.307,0,0,1,0,.436L10.862.157,7.944.484a.616.616,0,0,1-.678-.678l.327-2.918ZM19.986-10.7a1.224,1.224,0,0,1,0,1.732L18.412-7.393a.307.307,0,0,1-.436,0l-2.834-2.834a.307.307,0,0,1,0-.436l1.574-1.574a1.224,1.224,0,0,1,1.732,0Z" transform="translate(0 27.125)" fill="#2e2b2b"/>
</svg>
