<svg xmlns="http://www.w3.org/2000/svg" width="30" height="24" viewBox="0 0 30 24">
  <path id="Path_872" data-name="Path 872" d="M23.341-10.409l-9.932-9.932A2.584,2.584,0,0,0,11.818-21H2.25A2.25,2.25,0,0,0,0-18.75v9.568A2.584,2.584,0,0,0,.659-7.591l9.932,9.932a2.25,2.25,0,0,0,3.182,0l9.568-9.568A2.25,2.25,0,0,0,23.341-10.409ZM5.25-13.5A2.25,2.25,0,0,1,3-15.75,2.25,2.25,0,0,1,5.25-18,2.25,2.25,0,0,1,7.5-15.75,2.25,2.25,0,0,1,5.25-13.5ZM29.341-7.227a2.25,2.25,0,0,0,0-3.182l-9.932-9.932A2.584,2.584,0,0,0,17.818-21H15.534l9.2,9.2a4.191,4.191,0,0,1,1.236,2.983,4.191,4.191,0,0,1-1.236,2.983L16.574,2.324l.017.017a2.25,2.25,0,0,0,3.182,0Z" transform="translate(0 21)" fill="#c9c9c9"/>
</svg>
