<svg xmlns="http://www.w3.org/2000/svg" width="50" height="50" viewBox="0 0 50 50">
  <g id="Group_1734" data-name="Group 1734" transform="translate(-424 -3099)">
    <circle id="Ellipse_170" data-name="Ellipse 170" cx="25" cy="25" r="25" transform="translate(424 3099)" fill="#fff"/>
    <g id="Group_1583" data-name="Group 1583" transform="translate(439.718 3110.582)" opacity="0.996">
      <path id="_" data-name="+" d="M10.5-14.625V-21H1.125A1.122,1.122,0,0,0,0-19.875V1.875A1.122,1.122,0,0,0,1.125,3h15.75A1.122,1.122,0,0,0,18,1.875V-13.5H11.625A1.128,1.128,0,0,1,10.5-14.625Zm7.5-.661a1.121,1.121,0,0,0-.328-.792l-4.589-4.594a1.124,1.124,0,0,0-.8-.328H12v6h6Z" transform="translate(0.282 21.418)" fill="#f46f70"/>
    </g>
  </g>
</svg>
