<svg xmlns="http://www.w3.org/2000/svg" width="23.25" height="23.25" viewBox="0 0 23.25 23.25">
  <path id="Path_874" data-name="Path 874" d="M23.625-9A11.627,11.627,0,0,0,12-20.625,11.627,11.627,0,0,0,.375-9,11.624,11.624,0,0,0,12,2.625,11.624,11.624,0,0,0,23.625-9ZM12.312-16.781c2.642,0,5.462,2.062,5.462,4.781,0,3.61-3.9,3.666-3.9,5v.062a.563.563,0,0,1-.562.562H10.687a.563.563,0,0,1-.562-.562v-.187c0-1.925,1.459-2.694,2.562-3.312.946-.53,1.525-.891,1.525-1.593,0-.929-1.184-1.545-2.142-1.545-1.275,0-1.849.616-2.686,1.678a.562.562,0,0,1-.781.1L6.976-13.03a.563.563,0,0,1-.127-.762A6.072,6.072,0,0,1,12.312-16.781ZM12-5.156A2.159,2.159,0,0,1,14.156-3,2.159,2.159,0,0,1,12-.844,2.159,2.159,0,0,1,9.844-3,2.159,2.159,0,0,1,12-5.156Z" transform="translate(-0.375 20.625)" fill="#c9c9c9"/>
</svg>
