<svg xmlns="http://www.w3.org/2000/svg" width="43.001" height="43.001" viewBox="0 0 43.001 43.001">
  <path id="Create_New" data-name="Create New" d="M41.438,2.559,32.7,4.575a2.029,2.029,0,0,1-2.31-1.167L26.363-6a2.01,2.01,0,0,1,.579-2.352l5.089-4.166A31.126,31.126,0,0,0,17.15-27.4l-4.166,5.089a2.013,2.013,0,0,1-2.352.58L1.226-25.761A2.04,2.04,0,0,1,.05-28.079l2.016-8.734a2.015,2.015,0,0,1,1.965-1.562A38.964,38.964,0,0,1,43,.594,2.013,2.013,0,0,1,41.438,2.559Z" transform="translate(43 4.626) rotate(180)" fill="#fafafa"/>
</svg>
