<svg xmlns="http://www.w3.org/2000/svg" width="32.25" height="43" viewBox="0 0 32.25 43">
  <path id="Create_New" data-name="Create New" d="M14.468-36.507a2.017,2.017,0,0,1,3.314,0C29.985-18.817,32.25-17,32.25-10.5A16.125,16.125,0,0,1,16.125,5.625,16.125,16.125,0,0,1,0-10.5C0-17,2.265-18.817,14.468-36.507Zm1.657,19.289A6.719,6.719,0,0,0,9.406-10.5a6.719,6.719,0,0,0,6.719,6.719A6.719,6.719,0,0,0,22.844-10.5,6.719,6.719,0,0,0,16.125-17.219Z" transform="translate(32.25 5.625) rotate(180)" fill="#fafafa"/>
</svg>
