<svg xmlns="http://www.w3.org/2000/svg" width="43" height="32.25" viewBox="0 0 43 32.25">
  <path id="Create_New" data-name="Create New" d="M42.185-11.4c-1.881-1.461-4.367-3.326-12.934-9.549-1.7-1.243-4.753-4.023-7.752-4-2.981-.017-5.971,2.7-7.743,4C5.19-14.725,2.7-12.869.815-11.408A.5.5,0,0,1,0-11.8V-28.969A4.032,4.032,0,0,1,4.031-33H38.969A4.032,4.032,0,0,1,43-28.969v17.175A.506.506,0,0,1,42.185-11.4ZM21.5-22.25c1.948-.034,4.753,2.452,6.164,3.477C38.809-10.685,39.657-9.98,42.227-7.964A2.01,2.01,0,0,1,43-6.377v1.6A4.032,4.032,0,0,1,38.969-.75H4.031A4.032,4.032,0,0,1,0-4.781v-1.6A2.022,2.022,0,0,1,.773-7.964c2.57-2.007,3.418-2.721,14.563-10.809C16.746-19.8,19.552-22.284,21.5-22.25Z" transform="translate(43 -0.75) rotate(180)" fill="#fafafa"/>
</svg>
