<svg xmlns="http://www.w3.org/2000/svg" width="27.002" height="20.998" viewBox="0 0 27.002 20.998">
  <path id="Path_869" data-name="Path 869" d="M13.142-14.05,4.5-6.932V.75a.75.75,0,0,0,.75.75L10.5,1.486a.751.751,0,0,0,.746-.75V-3.75A.75.75,0,0,1,12-4.5h3a.75.75,0,0,1,.75.75V.733s0,0,0,0a.75.75,0,0,0,.75.75h0L21.75,1.5A.75.75,0,0,0,22.5.75V-6.937l-8.64-7.113a.665.665,0,0,0-.359-.127A.665.665,0,0,0,13.142-14.05ZM26.794-9.212l-3.919-3.23v-6.493a.563.563,0,0,0-.562-.562H19.687a.563.563,0,0,0-.562.563v3.4l-4.2-3.453A2.614,2.614,0,0,0,13.5-19.5a2.614,2.614,0,0,0-1.43.513L.2-9.212a.638.638,0,0,0-.2.434.654.654,0,0,0,.129.359l1.2,1.453a.638.638,0,0,0,.434.205.654.654,0,0,0,.358-.129l11.026-9.082A.665.665,0,0,1,13.5-16.1a.665.665,0,0,1,.359.127L24.886-6.891a.653.653,0,0,0,.359.129.638.638,0,0,0,.434-.2l1.2-1.453A.654.654,0,0,0,27-8.776.637.637,0,0,0,26.794-9.212Z" transform="translate(0.001 19.498)"/>
</svg>
