<svg xmlns="http://www.w3.org/2000/svg" width="44.25" height="59" viewBox="0 0 44.25 59">
  <path id="Create_New" data-name="Create New" d="M22.125-51.625A22.125,22.125,0,0,0,0-29.5C0-21.3,2.765-18.744,17.432,4.773a5.534,5.534,0,0,0,9.387,0C41.493-18.756,44.25-21.306,44.25-29.5A22.125,22.125,0,0,0,22.125-51.625Zm0,53.469C7.441-21.7,5.531-23.186,5.531-29.5A16.594,16.594,0,0,1,22.125-46.094,16.594,16.594,0,0,1,38.719-29.5C38.719-23.214,36.971-21.961,22.125,1.844ZM12.906-29.5a9.219,9.219,0,0,0,9.219,9.219A9.219,9.219,0,0,0,31.344-29.5a9.219,9.219,0,0,0-9.219-9.219A9.219,9.219,0,0,0,12.906-29.5Z" transform="translate(0 51.625)"/>
</svg>
