<svg xmlns="http://www.w3.org/2000/svg" width="24" height="24" viewBox="0 0 24 24">
  <path id="Path_873" data-name="Path 873" d="M23.674-.25,19-4.923a1.124,1.124,0,0,0-.8-.328h-.764a9.7,9.7,0,0,0,2.062-6A9.748,9.748,0,0,0,9.751-21,9.749,9.749,0,0,0,0-11.251,9.748,9.748,0,0,0,9.751-1.5a9.7,9.7,0,0,0,6-2.062V-2.8a1.124,1.124,0,0,0,.328.8L20.753,2.67a1.12,1.12,0,0,0,1.589,0l1.327-1.327A1.13,1.13,0,0,0,23.674-.25ZM9.751-4.5A6.746,6.746,0,0,1,3-11.251,6.746,6.746,0,0,1,9.751-18a6.746,6.746,0,0,1,6.75,6.749A6.746,6.746,0,0,1,9.751-4.5Zm0-11.248a3.461,3.461,0,0,0-3.461,3.461c0,1.545,2.262,4.362,3.129,5.384a.492.492,0,0,0,.332.155.492.492,0,0,0,.332-.155c.867-1.022,3.129-3.839,3.129-5.384A3.461,3.461,0,0,0,9.752-15.75Zm0,4.5a1.125,1.125,0,0,1-1.125-1.125A1.125,1.125,0,0,1,9.752-13.5a1.125,1.125,0,0,1,1.125,1.125A1.125,1.125,0,0,1,9.752-11.25Z" transform="translate(0 21)" fill="#c9c9c9"/>
</svg>
