<svg xmlns="http://www.w3.org/2000/svg" width="79" height="79" viewBox="0 0 79 79">
  <g id="Group_1732" data-name="Group 1732" transform="translate(-1216 -3685)">
    <circle id="Ellipse_183" data-name="Ellipse 183" cx="39.5" cy="39.5" r="39.5" transform="translate(1216 3685)" fill="#fff"/>
    <path id="Path_886" data-name="Path 886" d="M26.259-11.71,15.085-22.884a2.907,2.907,0,0,0-1.79-.741H2.531A2.531,2.531,0,0,0,0-21.094V-10.33A2.907,2.907,0,0,0,.741-8.54L11.915,2.634a2.531,2.531,0,0,0,3.58,0L26.259-8.13A2.531,2.531,0,0,0,26.259-11.71ZM5.906-15.187a2.531,2.531,0,0,1-2.531-2.531A2.531,2.531,0,0,1,5.906-20.25a2.531,2.531,0,0,1,2.531,2.531A2.531,2.531,0,0,1,5.906-15.187Zm27.1,7.057a2.531,2.531,0,0,0,0-3.58L21.835-22.884a2.907,2.907,0,0,0-1.79-.741H17.476L27.825-13.276a4.715,4.715,0,0,1,1.39,3.356,4.715,4.715,0,0,1-1.39,3.356L18.646,2.615l.019.019a2.531,2.531,0,0,0,3.58,0Z" transform="translate(1239 3735)" fill="#0055a5"/>
  </g>
</svg>
