<svg xmlns="http://www.w3.org/2000/svg" width="17" height="17" viewBox="0 0 17 17">
  <path id="Path_880" data-name="Path 880" d="M16.515-2.862,12.8-4.456a.95.95,0,0,0-.312-.064.9.9,0,0,0-.617.293L10.22-2.215A14.3,14.3,0,0,1,4.336-8.1L6.348-9.745a.9.9,0,0,0,.293-.617.947.947,0,0,0-.064-.313L4.984-14.393a.87.87,0,0,0-.735-.481.964.964,0,0,0-.178.02l-3.453.8A.835.835,0,0,0,0-13.281H0A15.4,15.4,0,0,0,15.406,2.125h0a.835.835,0,0,0,.776-.618l.8-3.453A.971.971,0,0,0,17-2.123.875.875,0,0,0,16.515-2.862Z" transform="translate(0 14.875)" fill="#fff"/>
</svg>
