<svg xmlns="http://www.w3.org/2000/svg" width="33.906" height="33.906" viewBox="0 0 33.906 33.906">
  <g id="Group_1603" data-name="Group 1603" transform="translate(9.734 -1.095)">
    <path id="_" data-name="+" d="M17.5-30.078A16.953,16.953,0,0,0,.547-13.125,16.953,16.953,0,0,0,17.5,3.828,16.953,16.953,0,0,0,34.453-13.125,16.953,16.953,0,0,0,17.5-30.078Zm0,31.719A14.765,14.765,0,0,1,2.734-13.125,14.765,14.765,0,0,1,17.5-27.891,14.765,14.765,0,0,1,32.266-13.125,14.765,14.765,0,0,1,17.5,1.641Zm9.682-18.8a.82.82,0,0,0,0-1.16l-.578-.582a.82.82,0,0,0-1.16,0L14.276-7.82,9.561-12.573a.82.82,0,0,0-1.16,0L7.818-12a.82.82,0,0,0,0,1.16l5.871,5.918a.82.82,0,0,0,1.16,0Z" transform="translate(-10.281 31.173)"/>
  </g>
</svg>
