<svg xmlns="http://www.w3.org/2000/svg" width="31" height="23.25" viewBox="0 0 31 23.25">
  <path id="Path_877" data-name="Path 877" d="M9.687-13.562v3.875H21.312v-3.875a3.879,3.879,0,0,1,3.875-3.875h1.937a5.814,5.814,0,0,0-5.812-5.812H9.687a5.814,5.814,0,0,0-5.812,5.812H5.812A3.879,3.879,0,0,1,9.687-13.562ZM27.125-15.5H25.187a1.935,1.935,0,0,0-1.937,1.937V-7.75H7.75v-5.812A1.935,1.935,0,0,0,5.812-15.5H3.875A3.879,3.879,0,0,0,0-11.625,3.866,3.866,0,0,0,1.937-8.289v7.32A.972.972,0,0,0,2.906,0H6.781A.972.972,0,0,0,7.75-.969v-.969h15.5v.969A.972.972,0,0,0,24.219,0h3.875a.972.972,0,0,0,.969-.969v-7.32A3.866,3.866,0,0,0,31-11.625,3.879,3.879,0,0,0,27.125-15.5Z" transform="translate(0 23.25)" fill="#2e2b2b"/>
</svg>
